# xmcd CD Database Entry
#
# Track frame offsets:
# 150
# 13762
# 30037
# 46400
# 57022
# 74392
# 87005
# 101757
# 113130
# 138575
# 161277
# 178107
#
# Disc length: 2759 seconds
#
# Revision: 3
# Processed by: cddbd v1.4PL0 Copyright (c) Steve Scherf et al.
# Submitted via: tcd 2.0b
#
DISCID=920ac50c
DTITLE=Sylvain Sylvain - Paper Pencil and Glue
DYEAR=1900
DGENRE=
TTITLE0=Paper, Pencil and Glue
TTITLE1=Oh Honey
TTITLE2=Hungry Girls
TTITLE3=I'm Your Man
TTITLE4=Another Heart Needs Mending
TTITLE5=Forgotten Panties
TTITLE6=Trash
TTITLE7=My Babe
TTITLE8=Frenchette
TTITLE9=Your Society Makes Me Sad
TTITLE10=It's on Fire
TTITLE11=Sleep Baby Doll
EXTD=
EXTT0=
EXTT1=
EXTT2=\t
EXTT3=
EXTT4=
EXTT5=
EXTT6=
EXTT7=
EXTT8=
EXTT9=
EXTT10=
EXTT11=
PLAYORDER=
